<!--
SPDX-FileCopyrightText: 2020-2023 Paweł Kuna
SPDX-FileCopyrightText: 2023 Weston Schmidt <weston_schmidt@alumni.purdue.edu>
SPDX-License-Identifier: MIT
-->
<?xml version="1.0" encoding="UTF-8"?>
<svg width="48" height="48" viewBox="0 -48 48 48" version="1.1" xmlns="http://www.w3.org/2000/svg"
     stroke-width="2"
     stroke="red"
     fill="none"
     stroke-linecap="round"
     stroke-linejoin="round"
>
<g transform="scale(1,-1)">
<path d="M 34,17.0298575  L34,11.0298575 " style="stroke-width:4"/>
<path d="M 34,5.0298575  L34,5.0098575 " style="stroke-width:4"/>
<path d="M 20,14  L28,14 " />
<path d="M 29,38  L30,38 " />
<path d="M 34,34  A4,4 0 0 1 30,38 " />
<path d="M 28,39  A1,1 0 0 1 27,40 " />
<path d="M 28,39  A1,1 0 0 1 29,38 " />
<path d="M 14,12  A4,4 0 0 1 18,8 " />
<path d="M 34,34  L34,21.22577285 " />
<path d="M 27.6,8  L18,8 " />
<path d="M 14,12  L14,34 " />
<path d="M 18,38  A4,4 0 0 1 14,34 " />
<path d="M 21,40  A1,1 0 0 1 20,39 " />
<path d="M 21,40  L27,40 " />
<path d="M 18,38  L19,38 " />
<path d="M 19,38  A1,1 0 0 1 20,39 " />
</g>
</svg>
