<!--
SPDX-FileCopyrightText: 2020-2023 Paweł Kuna
SPDX-FileCopyrightText: 2023 Weston Schmidt <weston_schmidt@alumni.purdue.edu>
SPDX-License-Identifier: MIT
-->
<?xml version="1.0" encoding="UTF-8"?>
<svg width="48mm" height="48mm" viewBox="0 -48 48 48" version="1.1" xmlns="http://www.w3.org/2000/svg"
     stroke-width="2"
     stroke="lime"
     fill="none"
     stroke-linecap="round"
     stroke-linejoin="round">
>
<g transform="scale(1,-1)">
<path d="M 20,20  L28,20 "/>
<path d="M 20,14  L28,14 "/>
<path d="M 20,26  L28,26 "/>
<path d="M 21,40  L27,40 "/>
<path d="M 28,39  A1,1 0 0 1 27,40 "/>
<path d="M 19,38  A1,1 0 0 1 20,39 "/>
<path d="M 21,40  A1,1 0 0 1 20,39 "/>
<path d="M 34,34  A4,4 0 0 1 30,38 "/>
<path d="M 34,34  L34,21.22577285 "/>
<path d="M 28,39  A1,1 0 0 1 29,38 "/>
<path d="M 29,38  L30,38 "/>
<path d="M 27.6,8  L18,8 "/>
<path d="M 14,12  A4,4 0 0 1 18,8 "/>
<path d="M 18,38  A4,4 0 0 1 14,34 "/>
<path d="M 18,38  L19,38 "/>
<path d="M 14,12  L14,34 "/>
<path d="M 34.55534774,17.0298575  L30.55534774,11.0298575  L38.55534774,11.0298575  L34.55534774,5.0298575 "/>
</g>
</svg>
