<!--
SPDX-FileCopyrightText: 2020-2023 Paweł Kuna
SPDX-FileCopyrightText: 2023 Weston Schmidt <weston_schmidt@alumni.purdue.edu>
SPDX-License-Identifier: MIT
-->
<?xml version="1.0" encoding="UTF-8"?>
<svg xmlns="http://www.w3.org/2000/svg" version="1.1"
     class="icon icon-tabler icon-tabler-coffee"
     width="192" height="192" viewBox="48.768 0 192 192"
     stroke-width="2.0"
     stroke="grey"
     fill="none"
     stroke-linecap="round"
     stroke-linejoin="round"
>
<g transform="scale(1,-1)">
<!-- mug -->
<path d="M 72.768,-133.536
            L72.768,-64.616
            A8.64,8.64 0 0 0 81.432,-56
            L168.104,-56
            A8.64,8.64 0 0 0 176.768,-64.616
            L176.768,-133.536
            A34.56080624,34.56080624 0 0 0 142.104,-168
            L107.432,-168
            A34.56593343,34.56593343 0 0 0 72.768,-133.536 "/>
<!-- handle -->
<path d="M 176.768,-80
            L196.768,-80
            A19.37279535,19.37279535 0 0 0 216.768,-98.664
            L216.768,-117.336
            A19.37279535,19.37279535 0 0 0 196.768,-136
            L176.768,-136 "/>

<!-- heater -->
<path d="M 85.39514789,-156.19578029  L89.23054693,-149.55267428
         M 91.74888224,-160.93882108  L98.32267716,-149.55267428
         M 99.09902584,-163.95603041  L107.41480738,-149.55267428
         M 107.56114355,-165.04724409  L116.50693761,-149.55267428
         M 116.65327378,-165.04724409  L125.59906783,-149.55267428
         M 125.745404,-165.04724409  L134.69119805,-149.55267428
         M 134.83753422,-165.04724409  L143.78332828,-149.55267428
         M 143.95757429,-164.99890283  L152.8754585,-149.55267428
         M 154.44495294,-162.58226167  L161.96758872,-149.55267428 "
        style="stroke:red"/>

<!-- coffee -->
<path d="M 72.768,-88  A89.15399507,89.15399507 0 0 1 124.768,-88
         M 176.768,-88  A89.15399507,89.15399507 0 0 1 124.768,-88 "/>

</g>
</svg>
