<!--
SPDX-FileCopyrightText: 2020-2023 Paweł Kuna
SPDX-FileCopyrightText: 2023 Weston Schmidt <weston_schmidt@alumni.purdue.edu>
SPDX-License-Identifier: MIT
-->
<?xml version="1.0" encoding="UTF-8"?>
<svg xmlns="http://www.w3.org/2000/svg" version="1.1"
     class="icon icon-tabler icon-tabler-coffee"
     width="192" height="192" viewBox="48.768 0 192 192"
     stroke-width="2.0"
     stroke="grey"
     fill="none"
     stroke-linecap="round"
     stroke-linejoin="round"
>
<g transform="scale(1,-1)">
<!-- alert -->
<path d="M 124.76864494,-138.50324782  L124.79114494,-138.50324782
            M 124.76864494,-122.75324782  L124.76864494,-131.75324782
            M 121.08539494,-110.58299782  L102.84689494,-141.03449782
            A4.3065,4.3065 0 0 1 106.52789494,-147.49424782
            L143.00939494,-147.49424782
            A4.3065,4.3065 0 0 1 146.69039494,-141.03674782
            L128.45189494,-110.58074782
            A4.3065,4.3065 0 0 1 121.08539494,-110.58074782
            L121.08539494,-110.58299782"
            style="stroke:red"/>

<!-- mug -->
<path d="M 72.768,-133.536
            L72.768,-64.616
            A8.64,8.64 0 0 0 81.432,-56
            L168.104,-56
            A8.64,8.64 0 0 0 176.768,-64.616
            L176.768,-133.536
            A34.56080624,34.56080624 0 0 0 142.104,-168
            L107.432,-168
            A34.56593343,34.56593343 0 0 0 72.768,-133.536 "/>
<!-- handle -->
<path d="M 176.768,-80
            L196.768,-80
            A19.37279535,19.37279535 0 0 0 216.768,-98.664
            L216.768,-117.336
            A19.37279535,19.37279535 0 0 0 196.768,-136
            L176.768,-136 "/>

<!-- steam -->
<path d="M 81.432,-14  A8.89885055,8.89885055 0 0 1 81.432,-28
         M 81.432,-42  A8.89885055,8.89885055 0 0 1 81.432,-28"
        style="stroke:white"/>

<path d="M 103.1,-14  A8.89885055,8.89885055 0 0 1 103.1,-28
         M 103.1,-42  A8.89885055,8.89885055 0 0 1 103.1,-28"
        style="stroke:white"/>

<path d="M 124.768,-42  A8.89885055,8.89885055 0 0 1 124.768,-28
         M 124.768,-14  A8.89885055,8.89885055 0 0 1 124.768,-28"
        style="stroke:white"/>

<path d="M 146.436,-14  A8.89885055,8.89885055 0 0 1 146.436,-28
         M 146.436,-42  A8.89885055,8.89885055 0 0 1 146.436,-28"
        style="stroke:white"/>

<path d="M 168.104,-14  A8.89885055,8.89885055 0 0 1 168.104,-28
         M 168.104,-42  A8.89885055,8.89885055 0 0 1 168.104,-28"
        style="stroke:white"/>

<!-- coffee -->
<path d="M 72.768,-88  A89.15399507,89.15399507 0 0 1 124.768,-88
         M 176.768,-88  A89.15399507,89.15399507 0 0 1 124.768,-88 "/>

</g>
</svg>
